# xmcd CD database file
#
# Track frame offsets:
#	150
#	13893
#	22973
#	35985
#	62413
#	75720
#	90809
#	104639
#	119922
#	133026
#	147638
#	161185
#	173659
#	187407
#	201254
#	215794
#	232522
#	246254
#
# Disc length: 3468 seconds
#
# Revision: 0
# Processed by: cddbd v1.5.1PL0 Copyright (c) Steve Scherf et al.
# Submitted via: CDex 1.51
#
DISCID=0d0d8a12
DTITLE=Billie Holiday - Lover Come Back To Me CD2
DYEAR=2004
DGENRE=Jazz
TTITLE0=Crazy He Calls Me
TTITLE1=Blue Turning Grey Over You
TTITLE2=I Only Have Eyes For You
TTITLE3=I Gotta Right To Sing The Blues
TTITLE4=Love For Sale
TTITLE5=Love Me Or Leave Me
TTITLE6=Rocky Mountain Blues
TTITLE7=Tenderly
TTITLE8=That Old Devil Called Love
TTITLE9=Trav'lin' Light
TTITLE10=What A Little Moonlight Can Do
TTITLE11=Where Is The Sun?
TTITLE12=Twenty-Four Hours A Day
TTITLE13=Time On My Hands
TTITLE14=They Say
TTITLE15=Stormy Weather
TTITLE16=Some Other Spring
TTITLE17=April In My Heart
EXTD=YEAR: 2004
EXTT0=
EXTT1=
EXTT2=
EXTT3=
EXTT4=
EXTT5=
EXTT6=
EXTT7=
EXTT8=
EXTT9=
EXTT10=
EXTT11=
EXTT12=
EXTT13=
EXTT14=
EXTT15=
EXTT16=
EXTT17=
PLAYORDER=
